<svg height="512" viewBox="0 0 60 60" width="512" xmlns="http://www.w3.org/2000/svg"><g id="Page-1" fill="none" fill-rule="evenodd"><g id="009---Overpowered" fill-rule="nonzero" transform="translate(0 -1)"><path id="Shape" d="m54.89 51.545-5.217-5.218-4.243 4.243 5.218 5.219c.2699087.2591653.455325.593751.532.96.2428704 1.2890355 1.1049883 2.3757763 2.3049723 2.9055278 1.1999841.5297515 2.5838879.4345517 3.7000277-.2545278 1.0436358-.6421193 1.7359943-1.7265675 1.879268-2.9435167.1432737-1.2169493-.2782967-2.4325424-1.144268-3.2994833-.5671054-.5657219-1.2935412-.9446408-2.082-1.086-.3617428-.0759109-.692151-.2592386-.948-.526z" fill="#f29c1f"/><path id="Rectangle-path" d="m7.421 41.625h7.69v16.219h-7.69z" fill="#e57e25" transform="matrix(.707 .707 -.707 .707 38.467 6.601)"/><path id="Shape" d="m23.66 44.59 8.06-6.31 6.34-4.98 19.13-14.99 1.81-16.31-16.31 1.81-26.28 33.53 1.59 4.66z" fill="#95a5a5"/><path id="Shape" d="m20.031 41.969c-.4043959-.0000863-.7689341-.2437275-.923678-.6173454-.1547439-.373618-.0692299-.8036603.216678-1.0896546l4.969-4.969c.3923789-.3789722 1.0160848-.3735524 1.4018186.0121814s.3911536 1.0094397.0121814 1.4018186l-4.969 4.969c-.1874927.1875494-.4418052.2929434-.707.293z" fill="#7f8c8d"/><path id="Shape" d="m33 9c-.1971916-.00015304-.3899366-.05860276-.554-.168l-3-2c-.4595009-.30651804-.583518-.92749909-.277-1.387s.9274991-.58351804 1.387-.277l3 2c.3668102.24458747.5301634.700538.4021268 1.12241403-.1280366.42187604-.5172499.71012626-.9581268.70958597z" fill="#f0c419"/><path id="Shape" d="m31 13h-4c-.5522847 0-1-.4477153-1-1s.4477153-1 1-1h4c.5522847 0 1 .4477153 1 1s-.4477153 1-1 1z" fill="#f0c419"/><path id="Shape" d="m36 6c-.3346327.00038456-.6472789-.1666353-.833-.445l-2-3c-.306518-.45977705-.182277-1.08098195.2775-1.38749998.4597771-.30651803 1.080982-.18227706 1.3875.27749998l2 3c.2047322.30685866.2239019.70150853.049874 1.02676504-.174028.32525651-.5129871.52829017-.881874.52823496z" fill="#f0c419"/><circle id="Oval" cx="55.092" cy="55.989" fill="#e57e25" r="1"/><path id="Shape" d="m49.71 44.95-5.66 5.66-5.93-5.93-1.41-1.41-1.42-1.42-1.41-1.41-3.54-3.54c-3.1201175-3.1283378-3.1201175-8.1916622 0-11.32z" fill="#bdc3c7"/><g fill="#95a5a5"><path id="Shape" d="m42.36 46.09-1.41 1.41h-.01l-1.4-1.4v-.01l1.41-1.41c.3967603-.3397768.9881942-.3169323 1.3575632.0524368.3693691.369369.3922136.9608029.0524368 1.3575632z"/><path id="Shape" d="m39.54 43.26-1.42 1.42-1.41-1.41v-.01l1.41-1.41c.3930079-.3899779 1.0269921-.3899779 1.42 0 .3877236.3900375.3877236 1.0199625 0 1.41z"/><path id="Shape" d="m36.71 40.43-1.42 1.42-1.41-1.41v-.01l1.41-1.41c.3930079-.3899779 1.0269921-.3899779 1.42 0 .3877236.3900375.3877236 1.0199625 0 1.41z"/></g><path id="Shape" d="m47 35h-3c-.5522847 0-1-.4477153-1-1s.4477153-1 1-1h3c.5522847 0 1 .4477153 1 1s-.4477153 1-1 1z" fill="#f0c419"/><path id="Shape" d="m13.524 34.462 13.014 13.014-1.069 6.18-18.125-18.125z" fill="#f29c1f"/><circle id="Oval" cx="10.063" cy="32.813" fill="#f0c419" r="3.845"/><circle id="Oval" cx="28.188" cy="50.938" fill="#f0c419" r="3.845"/><path id="Shape" d="m10.969 55.469-3.625-7.25 3.625-3.625 3.625 7.25z" fill="#d25627"/><path id="Shape" d="m10.063 61c-.26554132.0002088-.52026231-.1052054-.708-.293l-9.062-9.062c-.39074146-.3904653-.39096532-1.0237585-.0005-1.4145s1.02375854-.3909653 1.4145-.0005l9.063 9.063c.2859079.2859943.3714219.7160366.216678 1.0896546-.1547439.3736179-.5192821.6172591-.923678.6173454z" fill="#f29c1f"/><path id="Shape" d="m59 2-1.81 16.31-9.97-4.53-4.53-9.97z" fill="#bdc3c7"/><path id="Shape" d="m36 26c-.4043959-.0000863-.7689341-.2437275-.923678-.6173454-.1547439-.373618-.0692299-.8036603.216678-1.0896546l16-16c.3907415-.3904653 1.0240347-.39024143 1.4145.00050002s.3902414 1.02403466-.0005 1.41449998l-16 16c-.1876563.1871827-.4419486.2922087-.707.292z" fill="#7f8c8d"/><rect id="Rectangle-path" fill="#f0c419" height="4" rx="1" transform="matrix(.707 -.707 .707 .707 -20.232 47.577)" width="12" x="41.314" y="46.211"/></g></g></svg>